# xmcd
#
# Track frame offsets: 
#        150
#        19310
#        35037
#        56345
#        84577
#        100637
#        116475
#        135880
#        165412
#        193072
#        214220
#
# Disc length: 3097 seconds
#
# Revision: 0
# Processed by: cddbd v1.5.2PL0 Copyright (c) Steve Scherf et al.
# Submitted via: ExactAudioCopy v1.0b3
#
DISCID=8b0c170b
DTITLE=Seymour, Donath, McDaniel - Friends Forever
DYEAR=2002
DGENRE=Blues
TTITLE0=Reunion Blues
TTITLE1=If I Should Lose You
TTITLE2=Little Waltz
TTITLE3=Love Dance
TTITLE4=Best Friends
TTITLE5=Plaza Blues
TTITLE6=Some Other Time
TTITLE7=Well You Needn't
TTITLE8=Trilogy
TTITLE9=Whatcha' Doin?
TTITLE10=Blue In Green
EXTD=
EXTT0=
EXTT1=
EXTT2=
EXTT3=
EXTT4=
EXTT5=
EXTT6=
EXTT7=
EXTT8=
EXTT9=
EXTT10=
PLAYORDER=
